<svg aria-hidden="true" style="position: absolute; width: 0; height: 0; overflow: hidden;" version="1.1" xmlns="http://www.w3.org/2000/svg" xmlns:xlink="http://www.w3.org/1999/xlink">
<defs>
<symbol id="icon-soccer-ball" viewBox="0 0 32 32">
<title>soccer-ball</title>
<path d="M8.816 14.551l3.546 1.505 1.252 4.303-2.464 2.552-4.045 0.222c-1.234-1.745-1.995-3.849-2.094-6.125l3.804-2.457zM8.904 13.502l-1.542-3.986c1.303-1.702 3.070-3.029 5.113-3.792l3.525 2.869v3.814l-3.317 2.7-3.779-1.604zM12.122 23.343l2.263-2.343h4.118l2.351 2.435-1.086 4.095c-1.036 0.306-2.132 0.471-3.267 0.471s-2.232-0.164-3.267-0.471l-1.11-4.186zM21.732 22.904l-2.371-2.456 1.29-4.434 3.5-1.486 3.839 2.479c-0.099 2.276-0.859 4.38-2.094 6.125l-4.164-0.229zM24.113 13.459l-3.826 1.624-3.287-2.676v-3.814l3.525-2.869c2.043 0.763 3.81 2.090 5.113 3.792l-1.525 3.942zM16.5 29c6.904 0 12.5-5.596 12.5-12.5s-5.596-12.5-12.5-12.5c-6.904 0-12.5 5.596-12.5 12.5s5.596 12.5 12.5 12.5v0z"></path>
</symbol>
<symbol id="icon-basketball" viewBox="0 0 32 32">
<title>basketball</title>
<path d="M4.088 17.99c-0.058-0.489-0.088-0.988-0.088-1.493 0-2.803 0.922-5.39 2.48-7.474 3.040 0.159 5.887 1.052 8.365 2.505-1.866 3.831-5.797 6.47-10.345 6.47-0.119 0-0.393-0.007-0.412-0.007v0zM4.25 18.995c1.157 5.707 6.202 10.002 12.25 10.002 0.332 0 0.66-0.013 0.986-0.038v0c-0.316-1.099-0.486-2.261-0.486-3.462 0-3.402 1.359-6.487 3.564-8.741-1.32-1.848-2.971-3.442-4.867-4.697-2.047 4.112-6.292 6.938-11.198 6.938-0.084 0-0.167-0.001-0.25-0.002v0 0zM15.733 4.021c-3.351 0.203-6.345 1.726-8.47 4.055v0c2.888 0.259 5.596 1.147 7.983 2.527 0.488-1.275 0.755-2.659 0.755-4.106 0-0.85-0.092-1.679-0.267-2.477v0 0zM16.75 4c5.593 0.11 10.285 3.893 11.764 9.036-2.752 0.215-5.253 1.32-7.216 3.028-1.41-1.944-3.169-3.618-5.187-4.929 0.573-1.434 0.888-2.999 0.888-4.637 0-0.855-0.086-1.691-0.25-2.498v0zM23.974 26.518c-1.58 1.181-3.449 1.996-5.481 2.322v0c-0.321-1.058-0.493-2.18-0.493-3.342 0-3.056 1.192-5.833 3.136-7.892 1.65 2.603 2.668 5.645 2.839 8.912v0 0zM24.921 25.735c2.506-2.286 4.079-5.578 4.079-9.238 0-0.848-0.084-1.676-0.245-2.476-2.636 0.169-5.030 1.225-6.886 2.873 1.68 2.588 2.763 5.6 3.053 8.84v0 0z"></path>
</symbol>
<symbol id="icon-baseball-set" viewBox="0 0 32 32">
<title>baseball-set</title>
<path d="M27.782 24.266c-0.221-2.106-1.894-3.779-4-4v0c0.016 0.156 0.025 0.315 0.025 0.475 0 2.485-2.015 4.5-4.5 4.5-0.16 0-0.319-0.008-0.475-0.025 0.221 2.106 1.894 3.779 4 4-0.016-0.156-0.025-0.315-0.025-0.475 0-2.485 2.015-4.5 4.5-4.5 0.16 0 0.319 0.008 0.475 0.025v0zM27.776 25.272c-0.242 2.061-1.877 3.696-3.938 3.938-0.021-0.153-0.031-0.31-0.031-0.469 0-1.933 1.567-3.5 3.5-3.5 0.159 0 0.316 0.011 0.469 0.031v0zM22.775 20.272c-2.061 0.242-3.696 1.877-3.938 3.938 0.153 0.021 0.31 0.031 0.469 0.031 1.933 0 3.5-1.567 3.5-3.5 0-0.159-0.011-0.316-0.031-0.469v0zM13.117 15.88l-7.39 8.375 2.285 2.285 8.375-7.39-3.27-3.27zM13.78 15.128l9.762-11.064c1.204-1.364 3.207-1.423 4.486-0.144l0.319 0.319c1.278 1.278 1.214 3.287-0.144 4.486l-11.064 9.762-3.359-3.359zM7.328 27.269c0.185 0.527 0.068 1.138-0.354 1.559-0.59 0.59-1.536 0.586-2.121-0l-1.414-1.414c-0.584-0.584-0.586-1.536-0-2.121 0.424-0.424 1.031-0.541 1.557-0.356l2.332 2.332z"></path>
</symbol>
<symbol id="icon-football" viewBox="0 0 32 32">
<title>football</title>
<path d="M20 17h-1v2h-1v-2h-1v2h-1v-2h-1v2h-1v-2h-1v2h-1v-2h-2v-1h2v-2h1v2h1v-2h1v2h1v-2h1v2h1v-2h1v2h1v-2h1v2h2v1h-2v2h-1v-2zM9 22.177c1.966 1.050 4.449 1.823 7.5 1.823s5.534-0.773 7.5-1.823v0-11.353c-1.966-1.050-4.449-1.823-7.5-1.823s-5.534 0.773-7.5 1.823v11.353zM8 21.593c-3.454-2.193-5-5.093-5-5.093s1.546-2.9 5-5.093v10.186zM25 21.593c3.454-2.193 5-5.093 5-5.093s-1.546-2.9-5-5.093v10.186z"></path>
</symbol>
<symbol id="icon-hockey-sticks" viewBox="0 0 32 32">
<title>hockey-sticks</title>
<path d="M19.617 12.676l-6.173 12.428c-0.24 0.483-0.89 0.893-1.44 0.893h-6.006c-0.544 0-0.997-0.447-0.997-0.999v-1.002c0-0.556 0.444-0.999 0.991-0.999h5.009l5.877-11.717 2.74 1.396zM20.062 11.781l1.386-2.79c0.273-0.549 0.055-1.214-0.492-1.49l-0.759-0.382c-0.544-0.274-1.205-0.058-1.474 0.479l-1.398 2.788 2.737 1.395zM13.75 15.498l-1.394-2.807 2.74-1.396 0.379 0.755-1.724 3.449zM16.491 21.016l2.031 4.089c0.24 0.483 0.89 0.893 1.44 0.893h6.006c0.544 0 0.997-0.447 0.997-0.999v-1.002c0-0.556-0.444-0.999-0.991-0.999h-5.009l-2.737-5.457-1.738 3.475zM11.91 11.795l-1.393-2.804c-0.273-0.549-0.055-1.214 0.492-1.49l0.758-0.382c0.544-0.274 1.205-0.058 1.474 0.479l1.405 2.802-2.737 1.395z"></path>
</symbol>
<symbol id="icon-trophy1" viewBox="0 0 20 20">
<title>trophy1</title>
<path d="M11.18 14.356c0-1.451 1.1-2.254 2.894-3.442 2.194-1.456 4.926-3.265 4.926-7.56 0-0.387-0.317-0.699-0.709-0.699h-3.43c-0.484-0.896-1.929-1.855-4.861-1.855-2.934 0-4.377 0.959-4.862 1.855h-3.431c-0.391 0-0.707 0.313-0.707 0.699 0 4.295 2.73 6.104 4.926 7.559 1.794 1.188 2.894 1.991 2.894 3.442v1.311c-1.884 0.209-3.269 0.906-3.269 1.736 0 0.994 1.992 1.799 4.449 1.799s4.449-0.805 4.449-1.799c0-0.83-1.385-1.527-3.269-1.736v-1.31zM13.957 9.3c0.566-1.199 1.016-2.826 1.088-5.246h2.51c-0.24 2.701-1.862 4.064-3.598 5.246zM10 2.026c2.732-0.002 3.799 1.115 3.798 1.529 0 0.418-1.066 1.533-3.798 1.535-2.732-0.001-3.799-1.116-3.799-1.534-0.001-0.414 1.067-1.532 3.799-1.53zM2.445 4.054h2.509c0.073 2.42 0.521 4.047 1.089 5.246-1.736-1.182-3.359-2.545-3.598-5.246z"></path>
</symbol>
</defs>
</svg>
